<svg xmlns="http://www.w3.org/2000/svg" viewBox="0 0 123.35 125.42"><title>Fichier 1</title><g id="Calque_2" data-name="Calque 2"><g id="Calque_1-2" data-name="Calque 1"><g id="Symbols"><g id="Regular-L"><path d="M117.53,13.65l4.25-4.35a4.59,4.59,0,0,0,.09-6.83l-1.22-1.22c-1.8-1.81-4.63-1.61-6.59.34l-4.29,4.25ZM46.24,78.59l11.38-5L113.13,18l-7.76-7.71L49.85,65.85,44.53,76.78A1.39,1.39,0,0,0,46.24,78.59ZM19,125.42H92.63c11.13,0,17.53-6.4,17.53-18.8V37.13l-8.65,8.65v60.35c0,7-3.85,10.64-9.08,10.64H19.19c-6.84,0-10.55-3.61-10.55-10.64V34.55c0-7,3.71-10.65,10.55-10.65H75.63l8.7-8.64H19C6.4,15.26,0,21.61,0,34.11v72.51C0,119.12,6.4,125.42,19,125.42Z"/></g></g></g></g></svg>