<svg xmlns="http://www.w3.org/2000/svg" viewBox="0 0 772.88 640.62"><title>Fichier 2</title><g id="Calque_2" data-name="Calque 2"><g id="Calque_1-2" data-name="Calque 1"><path d="M556.51,37a190,190,0,0,1,19.23,1.42,163,163,0,0,1,37.91,8.89,175.3,175.3,0,0,1,74.67,51.12c16.32,18.74,28.18,40.09,36.27,65.26a254.27,254.27,0,0,1,9.21,38.16,190.59,190.59,0,0,1,2,25.25c1,39.47-10.63,74.44-35.47,106.92a238.38,238.38,0,0,1-25.23,27.57c-28.66,27.35-58.61,54.25-89,80-20.27,17.14-41,34.5-61.08,51.28q-13.51,11.31-27,22.63l-11.7,9.8c-8.85,7.41-18,15.07-27,22.67-12,10.11-25,19.62-36.13,27.59-5.55,4-11.15,8-16.56,11.9-6.57,4.73-13.36,9.62-20,14.37l-.4.28c-12.4-8.95-24.57-17.79-36.18-26.27-35.72-26.09-64.46-47.66-90.43-67.87-41-31.92-76.45-61.65-108.31-90.89-18.09-16.6-34.42-32.5-49.92-48.6-19.24-20-34-40.75-45.12-63.49a195.09,195.09,0,0,1-17.17-53.11c-1.62-9.61-2.26-20.32-2-33.72.47-23.89,6-47.33,17-71.67a198,198,0,0,1,26.19-43c25.6-31.69,56.82-51.74,95.47-61.31a165.85,165.85,0,0,1,22-3.71,171.18,171.18,0,0,1,18.13-.95c4.82,0,9.79.2,14.76.59A171.15,171.15,0,0,1,281,50c25.29,10.18,47.22,25,67,45.33.43.44,1.54,1.85,2.35,2.88s1.55,2,2.45,3.06a41.25,41.25,0,0,0,22.43,15.94l6.54,1.84,6.76-.6c7.57-.68,18.46-3.8,27.75-14.78,1.71-1.78,3.37-3.53,5-5.23,3.18-3.37,6.19-6.55,9.15-9.44a192.79,192.79,0,0,1,36.92-28.37,168.84,168.84,0,0,1,55.4-20.57,139.55,139.55,0,0,1,19.54-2.45c2.25-.08,4.35-.21,6.38-.32,2.42-.15,4.7-.28,6.67-.31h1.13m0-37h-1.73c-4.63.08-9.25.48-13.88.66a177,177,0,0,0-24.71,3,204.91,204.91,0,0,0-67.51,25.06,228.53,228.53,0,0,0-44.05,33.81c-5.37,5.24-10.42,10.82-15.65,16.22-1.08,1.11-1.83,2.69-3.68,2.86-1.71-.48-2.38-2-3.38-3.25-2.46-2.95-4.69-6.11-7.36-8.85a230.67,230.67,0,0,0-79.72-53.82A207.54,207.54,0,0,0,233.53,1.12q-8.82-.69-17.67-.7a204.51,204.51,0,0,0-22.1,1.17,201.61,201.61,0,0,0-26.89,4.57c-46.82,11.59-85.12,36.54-115.36,74a234.19,234.19,0,0,0-31.13,51.07C8,158.61.66,187.19.07,217.38A217.35,217.35,0,0,0,2.57,258,231.24,231.24,0,0,0,23,321.2c13.26,27.1,30.81,51.19,51.7,72.89q25,25.94,51.57,50.21c35.49,32.57,72.59,63.24,110.6,92.82,30,23.38,60.59,46.1,91.33,68.55q18.21,13.3,36.5,26.49a66.68,66.68,0,0,0,7.26,4.65,29.62,29.62,0,0,0,14.17,3.81,29.3,29.3,0,0,0,13.39-3.4,67.18,67.18,0,0,0,8.54-5.31c12.25-8.72,24.41-17.56,36.64-26.3,13.14-9.4,26.13-19,38.48-29.43,12.84-10.83,25.74-21.58,38.61-32.37,29.41-24.66,58.91-49.23,88.23-74q46.54-39.36,90.66-81.44a276,276,0,0,0,29.08-31.87c29.41-38.45,44.26-81.7,43.07-130.3a229,229,0,0,0-2.46-30.07,288.93,288.93,0,0,0-10.53-43.76c-9.32-29-23.57-55.22-43.59-78.23A213.31,213.31,0,0,0,626.18,12.5,198.75,198.75,0,0,0,579.63,1.62,220.79,220.79,0,0,0,556.51,0Z"/></g></g></svg>