<svg xmlns="http://www.w3.org/2000/svg" viewBox="0 0 772.88 640.62"><defs><style>.cls-1{fill:#d6615e;}</style></defs><title>Fichier 1</title><g id="Calque_2" data-name="Calque 2"><g id="Calque_1-2" data-name="Calque 1"><path class="cls-1" d="M385.3,81.63c1.85-.17,2.6-1.75,3.68-2.86,5.23-5.4,10.28-11,15.65-16.22a228.53,228.53,0,0,1,44.05-33.81A204.91,204.91,0,0,1,516.19,3.68a177,177,0,0,1,24.71-3c4.63-.18,9.25-.58,13.88-.66a206.66,206.66,0,0,1,24.85,1.61A198.75,198.75,0,0,1,626.18,12.5a213.31,213.31,0,0,1,90.05,61.63c20,23,34.27,49.24,43.59,78.23a288.93,288.93,0,0,1,10.53,43.76,229,229,0,0,1,2.46,30.07c1.19,48.6-13.66,91.85-43.07,130.3a276,276,0,0,1-29.08,31.87Q656.56,430.45,610,469.8c-29.32,24.78-58.82,49.35-88.23,74C508.9,554.6,496,565.35,483.16,576.18c-12.35,10.44-25.34,20-38.48,29.43-12.23,8.74-24.39,17.58-36.64,26.3a67.18,67.18,0,0,1-8.54,5.31c-9.21,4.7-18.47,4.49-27.56-.41a66.68,66.68,0,0,1-7.26-4.65Q346.4,619,328.18,605.67c-30.74-22.45-61.29-45.17-91.33-68.55-38-29.58-75.11-60.25-110.6-92.82Q99.72,420,74.68,394.09C53.79,372.39,36.24,348.3,23,321.2A231.24,231.24,0,0,1,2.57,258a217.35,217.35,0,0,1-2.5-40.62C.66,187.19,8,158.61,20.38,131.21A234.19,234.19,0,0,1,51.51,80.14c30.24-37.44,68.54-62.39,115.36-74a201.61,201.61,0,0,1,26.89-4.57,214,214,0,0,1,39.77-.47,207.54,207.54,0,0,1,61.31,14.59,230.67,230.67,0,0,1,79.72,53.82c2.67,2.74,4.9,5.9,7.36,8.85C382.92,79.58,383.6,81.15,385.3,81.63Z"/></g></g></svg>