<svg xmlns="http://www.w3.org/2000/svg" viewBox="0 0 678.76 469.97"><defs><style>.cls-1{font-size:48px;font-family:AvenirNext-Regular, Avenir Next;}.cls-2{letter-spacing:-0.06em;}.cls-3{letter-spacing:-0.02em;}.cls-4{letter-spacing:-0.01em;}.cls-5{letter-spacing:-0.03em;}</style></defs><title>Fichier 1</title><g id="Calque_2" data-name="Calque 2"><g id="Calque_1-2" data-name="Calque 1"><path d="M208.44,352.56v-117c-18-1.87-34.56-7.37-49.14-18.23-31.13-23.21-44.74-63.7-33.5-100.33,11.59-37.78,45.51-64.16,84.67-65.59,10.88-.4,22.86,2.65,32.36-1,8.91-3.44,14.95-13.95,22.72-20.83,50.39-44.65,126.08-38,168.18,14.9,4,5,7.88,7.18,14.24,6.88,20.58-1,40.78.48,59.49,10.57,34.53,18.61,54.39,57,48.48,94-6.58,41.23-36.24,71.42-76.88,78.27-2.67.45-5.34,1-8.67,1.59V352.1c3.21.16,6.36.45,9.52.46,55.26,0,110.53-.07,165.79.14,4.27,0,11.76-2.67,11.86,4.43.12,7.78-7.62,5.13-12.17,5.13q-295.65.19-591.31.09c-3.53,0-7.21.24-10.53-.67-1.72-.47-3.51-3.09-3.9-5-.19-1,2.58-3.29,4.29-3.66,3.14-.68,6.49-.44,9.76-.44q72.29,0,144.56,0ZM460,226.13c3.3-.2,5.19-.35,7.08-.41,42.61-1.51,77.7-35.37,79.81-77,2.24-44.08-28.06-81-71.75-86.63-11.27-1.44-22.81-1.06-34.22-1-5.08,0-8.25-1.34-11.43-5.65C402.55,18.85,366.1,3.29,321.72,12.2c-44,8.85-71.45,37.2-82.71,80.71-1.89,7.28-2.37,14.92-3.5,22.41h-8.75c-.21-19.24,5-36.49,12.85-53.23C183,54,145,81.06,133.94,124.64c-5.46,21.53-2,42.39,9.71,61.25,17,27.4,42.72,39.91,75.21,40.3v85.65h46.76V265.75h10v46.08h59.1V278.61h9.67v33.15h59.35V265l9.41.43V311.9H460Zm-.35,96.78H219.19V352H459.65Z"/><path d="M671,350.27l7.76,6.77c-2.54,1.75-5,4.79-7.62,4.88s-5.42-2.69-8.13-4.21Z"/><path d="M7.77,364.45,0,357.26c2.67-1.55,5.35-4.33,8-4.3s5.15,2.93,7.72,4.56Z"/><path d="M34.91,356.45c-4,2.9-6,5.49-7.82,5.34-2.26-.19-4.32-2.62-6.47-4.08,1.65-1.68,3.16-4.49,5-4.73C27.83,352.69,30.33,354.6,34.91,356.45Z"/><path d="M411.16,209.15,406,201.69c27.19-21.78,41.73-49.82,43-84.94l8.13-.48C461.71,139,445.37,186,411.16,209.15Z"/><text class="cls-1" transform="translate(13.8 450.25)"><tspan class="cls-2">P</tspan><tspan x="24.96" y="0">AS DE SELF</tspan><tspan class="cls-3" x="281.33" y="0"> </tspan><tspan class="cls-4" x="292.46" y="0">A</tspan><tspan x="325.49" y="0">UJOURD’HUI..</tspan><tspan class="cls-5" x="639.79" y="0">.</tspan></text></g></g></svg>