<?xml version="1.0" encoding="utf-8"?>
<!-- Generator: Adobe Illustrator 16.0.0, SVG Export Plug-In . SVG Version: 6.00 Build 0)  -->
<!DOCTYPE svg PUBLIC "-//W3C//DTD SVG 1.1//EN" "http://www.w3.org/Graphics/SVG/1.1/DTD/svg11.dtd">
<svg version="1.1" id="Calque_1" xmlns="http://www.w3.org/2000/svg" xmlns:xlink="http://www.w3.org/1999/xlink" x="0px" y="0px"
	 width="1010px" height="758.5px" viewBox="0 0 1010 758.5" enable-background="new 0 0 1010 758.5" xml:space="preserve">
<g>
	<g>
    <circle fill="#89898D"  id="my-circle" cx="108.933" cy="143.892" r="98.601" />

	<animate 
    xlink:href="#my-circle"
    attributeName="r"
    from="99"
    to="70" 
    dur="1s"
    begin="click"
    fill="restart" />
			
	<path fill="#FFFFFF" d="M40.504,157.588c4.48-0.755,8.396-2.681,11.754-5.769l0.975,5.769c-3.567,2.607-7.529,4.278-11.883,5.011
			c-7.668,1.293-14.671-0.321-21.004-4.85c-6.356-4.497-10.181-10.581-11.473-18.25c-1.297-7.67,0.322-14.671,4.848-21.005
			c4.499-6.354,10.583-10.179,18.251-11.473c4.352-0.733,8.642-0.456,12.87,0.835l0.972,5.771c-4.184-1.82-8.516-2.351-12.997-1.596
			c-6.277,1.06-11.266,4.195-14.967,9.4c-3.706,5.206-5.026,10.947-3.967,17.224c1.059,6.276,4.191,11.265,9.397,14.967
			C28.485,157.324,34.228,158.647,40.504,157.588z"/>
	<path fill="#FFFFFF" d="M85.971,98.456l9.199,54.517l-5.012,0.845l-4.19-24.829l-27.637,4.663l4.19,24.829l-5.011,0.846
			l-9.199-54.517l5.012-0.846l4.164,24.677l27.636-4.663L80.959,99.3L85.971,98.456z"/>
	<path fill="#FFFFFF" d="M130.006,91.023l9.2,54.518l-4.973,0.836l-2.299-13.628l-21.639,3.653l-6.32,15.082l-5.92,1l25.271-60.332
			L130.006,91.023z M112.599,130.859l18.489-3.121l-4.927-29.194L112.599,130.859z"/>
	<path fill="#FFFFFF" d="M188.814,81.1l9.191,54.479l-4.972,0.838l-7.15-42.365l-11.182,45.498l-5.464,0.923l-25.455-39.318
			l7.149,42.368l-5.01,0.847l-9.193-54.479l5.238-0.885l28.939,44.704l12.707-51.73L188.814,81.1z"/>
	<path fill="#FFFFFF" d="M33.488,216.924l-4.125,0.695l-7.567-44.843l16.144-2.722c3.375-0.57,6.471,0.151,9.295,2.157
			c2.794,1.991,4.483,4.692,5.06,8.107c0.568,3.372-0.141,6.468-2.126,9.287c-2.011,2.802-4.704,4.487-8.075,5.056l-12.022,2.029
			L33.488,216.924z M29.375,192.567l12.023-2.029c2.248-0.379,4.038-1.505,5.371-3.379c1.315-1.849,1.781-3.897,1.405-6.146
			c-0.384-2.269-1.502-4.072-3.354-5.407c-1.875-1.333-3.936-1.809-6.183-1.431l-12.021,2.029L29.375,192.567z"/>
	<path fill="#FFFFFF" d="M72.321,164.251l7.569,44.842l-4.093,0.691l-1.891-11.212l-17.798,3.005l-5.198,12.407l-4.872,0.821
			l20.787-49.625L72.321,164.251z M58.004,197.018l15.208-2.565l-4.052-24.013L58.004,197.018z"/>
	<path fill="#FFFFFF" d="M88.822,201.133c-5.228-3.7-8.372-8.706-9.438-15.015c-1.061-6.285,0.269-12.044,3.991-17.275
			c3.701-5.207,8.708-8.342,15.017-9.407c3.1-0.524,6.167-0.429,9.198,0.279l-0.981,4.083c-2.477-0.588-4.983-0.668-7.522-0.24
			c-5.164,0.871-9.269,3.441-12.319,7.699c-3.044,4.283-4.131,9.005-3.261,14.167c0.872,5.164,3.447,9.27,7.73,12.313
			c4.281,3.047,9.003,4.134,14.167,3.262c2.082-0.354,4.046-1.024,5.89-2.02l-2.666-15.803l-9.337,1.576l-0.695-4.122l13.458-2.271
			l3.832,22.702l-1.161,0.741c-2.65,1.689-5.525,2.794-8.625,3.318C99.791,206.186,94.032,204.854,88.822,201.133z"/>
	<path fill="#FFFFFF" d="M143.208,152.292l7.568,44.842l-4.436,0.749l-28.667-33.608l6.307,37.38l-4.12,0.694l-7.567-44.842
			l4.464-0.753l28.636,33.611l-6.306-37.377L143.208,152.292z"/>
	<path fill="#FFFFFF" d="M179.961,146.089l7.568,44.842l-4.092,0.689l-1.893-11.211l-17.797,3.005l-5.197,12.407l-4.873,0.821
			l20.788-49.626L179.961,146.089z M165.643,178.855l15.208-2.568l-4.054-24.013L165.643,178.855z"/>
	<path fill="#FFFFFF" d="M210.938,140.862l0.695,4.122l-11.74,1.982l6.87,40.72l-4.12,0.695l-6.871-40.718l-11.774,1.985
			l-0.695-4.124L210.938,140.862z"/>
	</g>
	<circle id="cercle1" fill="#3857A2" cx="163.484" cy="33.145" r="14.514"/>
	 <animateTransform  xlink:href="#cercle1" attributeName="transform" type="rotate" from="0 130 130" to="360 130 130" dur="2.5s" repeatCount="indefinite" />
	
	
	<circle id="cercle2" fill="#E55E0E" cx="196.458" cy="48.506" r="12.103"/>
	<animateTransform  xlink:href="#cercle2" attributeName="transform" type="rotate" from="0 130 130" to="360 130 130" dur="3s" repeatCount="indefinite" />
	
	<circle  id="cercle3" fill="#28A851" cx="216.906" cy="77.59" r="11.914"/>
	<animateTransform  xlink:href="#cercle3" attributeName="transform" type="rotate" from="0 130 130" to="360 130 130" dur="2s" repeatCount="indefinite" />
	<g>
		<g>
			<path fill="none" stroke="#89898D" stroke-width="3" stroke-miterlimit="10" d="M6.14,111.804
				c0.038-0.163,0.076-0.325,0.114-0.487"/>
			<path fill="none" stroke="#89898D" stroke-width="3" stroke-miterlimit="10" stroke-dasharray="1.001,8.0076" d="M8.37,103.592
				c17.257-55.424,73.664-89.479,131.078-78.428"/>
			<path fill="none" stroke="#89898D" stroke-width="3" stroke-miterlimit="10" d="M143.365,25.987
				c0.163,0.037,0.325,0.075,0.487,0.112"/>
		</g>
	</g>
</g>
</svg>
